<svg width="24" height="18" viewBox="0 0 24 18" fill="none" xmlns="http://www.w3.org/2000/svg">
<path d="M0 12H24V16C24 17.1046 23.1046 18 22 18H2C0.89543 18 0 17.1046 0 16V12Z" fill="black"/>
<path d="M0 6H24V12H0V6Z" fill="white"/>
<path d="M0 2C0 0.89543 0.895431 0 2 0H22C23.1046 0 24 0.895431 24 2V6H0V2Z" fill="#CE1126"/>
<path d="M12.0234 9.07026L14.0781 10.9804L13.9336 7.51557C13.9102 6.98823 13.4531 7.10932 13.1211 7.30073C12.7891 7.51557 12.4023 7.51557 12 7.37495C11.5937 7.51557 11.2109 7.51557 10.8789 7.30073C10.5469 7.10932 10.0898 6.98823 10.0664 7.51557L9.92188 10.9804L12.0234 9.07026Z" fill="white"/>
<path fill-rule="evenodd" clip-rule="evenodd" d="M10.3555 7.11926C10.5203 7.10709 10.7219 7.18781 10.8886 7.28392L10.8895 7.28442L10.8895 7.28445C11.2149 7.49499 11.5909 7.49599 11.9936 7.35661L12.0082 7.35156L12.0064 7.35663C12.4051 7.49598 12.7851 7.495 13.1105 7.28445L13.1113 7.2839L13.1113 7.28392C13.2781 7.18781 13.4797 7.10709 13.6445 7.11926C13.7277 7.12541 13.8028 7.15539 13.8582 7.22C13.9133 7.28425 13.9471 7.38036 13.953 7.5148L13.953 7.51485L14.0976 10.9797C14.0979 10.9876 14.0934 10.9949 14.0863 10.9982C14.0791 11.0015 14.0706 11.0002 14.0648 10.9948L12.0233 9.09684L9.93496 10.9949C9.92914 11.0002 9.92071 11.0015 9.91358 10.9982C9.90646 10.9948 9.90203 10.9876 9.90236 10.9797L10.0469 7.51485L10.0469 7.5148C10.0529 7.38036 10.0866 7.28425 10.1417 7.22C10.1972 7.15539 10.2722 7.12541 10.3555 7.11926ZM10.0859 7.5165C10.0859 7.51651 10.0859 7.51652 10.0859 7.51653L9.94327 10.9347L12.0103 9.05592C12.0178 9.0491 12.0293 9.04917 12.0367 9.05607L14.0566 10.9339L13.9141 7.51653C13.9083 7.38729 13.8761 7.30078 13.8286 7.2454C13.7814 7.19038 13.717 7.16372 13.6416 7.15815C13.4892 7.1469 13.2964 7.22229 13.1312 7.31746C12.7944 7.53517 12.4035 7.53529 11.9999 7.39567C11.5926 7.53528 11.2055 7.53519 10.8687 7.31746C10.7035 7.22229 10.5108 7.1469 10.3583 7.15815C10.2829 7.16372 10.2185 7.19038 10.1713 7.2454C10.1238 7.30078 10.0916 7.38728 10.0859 7.5165Z" fill="#C09300"/>
<path d="M10.3047 7.39453L10.1602 10.7656L9.92188 10.9805L10.0664 7.51563C10.1406 7.46094 10.2188 7.42188 10.3047 7.39453ZM10.5938 7.63672L10.4727 10.4531L10.2344 10.6992L10.3789 7.44531C10.4258 7.49219 10.5664 7.60938 10.5938 7.63672ZM10.8555 7.85156L10.7617 10.2031L10.5664 10.3906L10.6875 7.71094C10.7344 7.75391 10.8281 7.82422 10.8555 7.85156ZM11.1406 7.97266L11.0469 9.97656L10.8555 10.1289L10.9492 7.89844C10.9961 7.92188 11.0898 7.97266 11.1406 7.97266ZM11.4023 7.97266L11.3359 9.64063L11.1406 9.83203L11.2148 7.99219C11.2578 7.99219 11.3828 7.99219 11.4023 7.97266Z" fill="#C09300"/>
<path d="M13.6953 7.39453L13.8398 10.7656L14.0781 10.9805L13.9336 7.51563C13.8594 7.46094 13.7812 7.42188 13.6953 7.39453ZM13.4062 7.63672L13.5273 10.4531L13.7656 10.6992L13.6211 7.44531C13.5742 7.49219 13.4336 7.60938 13.4062 7.63672ZM13.1445 7.85156L13.2383 10.2031L13.4336 10.3906L13.3125 7.71094C13.2656 7.75391 13.1719 7.82422 13.1445 7.85156ZM12.8594 7.97266L12.9531 9.97656L13.1445 10.1289L13.0508 7.89844C13.0039 7.92188 12.9102 7.97266 12.8594 7.97266ZM12.5977 7.97266L12.6641 9.64063L12.8594 9.83203L12.7852 7.99219C12.7422 7.99219 12.6172 7.99219 12.5977 7.97266Z" fill="#C09300"/>
<path d="M12.0977 9.44922L12.3828 10.7656L12.2891 10.8594L12.1875 10.7852L12.0273 9.61328L12.0977 10.7852L12 10.9063L11.9063 10.7852L11.9766 9.61328L11.8125 10.7852L11.7109 10.8594L11.6172 10.7656L11.9023 9.45312H12.0977V9.44922Z" fill="#C09300"/>
<path fill-rule="evenodd" clip-rule="evenodd" d="M11.889 9.43665H12.0976V9.44747L12.1138 9.44575L12.4008 10.7709L12.2907 10.8811L12.1639 10.7884L12.1711 10.7874L12.0698 10.0461L12.115 10.7992L12.1105 10.7955L11.9997 10.9329L11.8843 10.7839L11.8897 10.7842L11.9351 10.0282L11.8265 10.8043L11.8222 10.7985L11.7092 10.8811L11.5991 10.7709L11.889 9.43665ZM12.0852 9.46965H11.9156L11.6352 10.7603L11.7126 10.8377L11.7971 10.776L11.9602 9.61101L11.993 9.61429L11.9231 10.78L12.0002 10.8797L12.0808 10.7798L12.0108 9.61429L12.0437 9.61107L12.2029 10.776L12.2874 10.8377L12.3648 10.7603L12.0852 9.46965Z" fill="#C09300"/>
<path d="M11.3555 8.875L10.7812 10.9063L11.5703 11.0234L11.9023 9.49609L11.3555 8.875Z" fill="white"/>
<path fill-rule="evenodd" clip-rule="evenodd" d="M11.3514 8.8575C11.3578 8.85604 11.3646 8.85821 11.3689 8.86316L11.9158 9.48425C11.9196 9.48855 11.9211 9.49438 11.9199 9.49997L11.5878 11.0273C11.5858 11.0366 11.577 11.0427 11.5676 11.0413L10.7785 10.9241C10.7734 10.9234 10.7689 10.9204 10.7661 10.9161C10.7633 10.9117 10.7625 10.9064 10.7639 10.9014L11.3381 8.87016C11.3399 8.86382 11.345 8.85896 11.3514 8.8575ZM11.3637 8.91176L10.8041 10.8915L11.5562 11.0032L11.8828 9.50122L11.3637 8.91176Z" fill="#C09300"/>
<path fill-rule="evenodd" clip-rule="evenodd" d="M11.619 9.39696L11.2479 9.74853C11.2433 9.75291 11.2368 9.75476 11.2305 9.75347C11.2243 9.75218 11.2191 9.74791 11.2166 9.74205L11.1462 9.57799L11.1821 9.56263L11.2414 9.70097L11.5922 9.36865L11.619 9.39696Z" fill="#C09300"/>
<path fill-rule="evenodd" clip-rule="evenodd" d="M11.4845 9.88098L11.4064 9.15051L11.4451 9.14636L11.518 9.82758L11.7227 9.55471L11.7539 9.57811L11.6667 9.69427L11.763 10.0297L11.8079 9.96188L11.8404 9.98343L11.7771 10.0789L11.7922 10.1313L11.7547 10.1421L11.7488 10.1216L11.5803 10.3756L11.6636 10.7615L11.6254 10.7697L11.5494 10.4172L11.3952 10.6551C11.3912 10.6614 11.3838 10.6648 11.3763 10.6639C11.3689 10.6629 11.3626 10.6577 11.3603 10.6505L11.2797 10.4018L11.1299 10.6469C11.1258 10.6535 11.1182 10.6571 11.1105 10.656C11.1028 10.6549 11.0965 10.6494 11.0945 10.6419L10.9695 10.1888C10.9676 10.1821 10.9694 10.175 10.9742 10.17L11.2203 9.91611C11.2252 9.91108 11.2324 9.90905 11.2392 9.9108C11.246 9.91255 11.2513 9.91781 11.2532 9.92458L11.317 10.1596L11.4727 9.9531C11.4774 9.9469 11.4853 9.94406 11.4928 9.94589C11.5004 9.94771 11.5061 9.95383 11.5075 9.96149L11.5702 10.3203L11.7347 10.0724L11.6374 9.73339L11.5195 9.89061C11.5147 9.89702 11.5064 9.89983 11.4987 9.89771C11.491 9.89558 11.4853 9.88895 11.4845 9.88098ZM11.538 10.363L11.4768 10.0124L11.3241 10.2149C11.3197 10.2208 11.3122 10.2237 11.3049 10.2223C11.2976 10.2209 11.2917 10.2154 11.2897 10.2082L11.2245 9.96786L11.01 10.1892L11.1201 10.5881L11.2685 10.3453C11.2725 10.3388 11.2798 10.3352 11.2874 10.3361C11.295 10.337 11.3013 10.3422 11.3037 10.3495L11.3848 10.5995L11.538 10.363Z" fill="#C09300"/>
<path fill-rule="evenodd" clip-rule="evenodd" d="M11.1126 10.6175C11.1199 10.6187 11.1259 10.624 11.128 10.6312L11.217 10.9322L11.3387 10.7283C11.3426 10.7217 11.35 10.718 11.3576 10.7189C11.3652 10.7197 11.3716 10.725 11.374 10.7322L11.4677 11.0213L11.4306 11.0333L11.3501 10.7852L11.2276 10.9904C11.2237 10.9971 11.2161 11.0008 11.2085 10.9998C11.2008 10.9988 11.1944 10.9934 11.1922 10.986L11.1019 10.6804L10.965 10.8707L10.9333 10.848L11.0935 10.6253C11.0979 10.6193 11.1053 10.6162 11.1126 10.6175Z" fill="#C09300"/>
<path d="M12.6445 8.875L13.2188 10.9063L12.4297 11.0234L12.0977 9.49609L12.6445 8.875Z" fill="white"/>
<path fill-rule="evenodd" clip-rule="evenodd" d="M12.6485 8.8575C12.6549 8.85896 12.66 8.86382 12.6618 8.87016L13.236 10.9014C13.2374 10.9064 13.2366 10.9117 13.2338 10.9161C13.231 10.9204 13.2264 10.9234 13.2213 10.9241L12.4323 11.0413C12.4229 11.0427 12.414 11.0366 12.412 11.0273L12.08 9.49997C12.0788 9.49438 12.0803 9.48855 12.0841 9.48425L12.631 8.86316C12.6353 8.85821 12.642 8.85604 12.6485 8.8575ZM12.1171 9.50122L12.4436 11.0032L13.1958 10.8915L12.6361 8.91176L12.1171 9.50122Z" fill="#C09300"/>
<path fill-rule="evenodd" clip-rule="evenodd" d="M12.7587 9.70097L12.4079 9.36865L12.3811 9.39696L12.7522 9.74853C12.7568 9.75291 12.7633 9.75476 12.7696 9.75347C12.7758 9.75218 12.781 9.74791 12.7835 9.74205L12.8538 9.57799L12.818 9.56263L12.7587 9.70097Z" fill="#C09300"/>
<path fill-rule="evenodd" clip-rule="evenodd" d="M12.4819 9.82758L12.5547 9.14636L12.5935 9.15051L12.5154 9.88098C12.5145 9.88895 12.5089 9.89558 12.5012 9.89771C12.4934 9.89983 12.4852 9.89702 12.4804 9.89061L12.3625 9.73339L12.2652 10.0724L12.4297 10.3203L12.4924 9.96149C12.4937 9.95383 12.4995 9.94771 12.507 9.94589C12.5146 9.94406 12.5225 9.9469 12.5272 9.9531L12.6829 10.1596L12.7467 9.92458C12.7485 9.91781 12.7539 9.91255 12.7606 9.9108C12.7674 9.90905 12.7746 9.91108 12.7795 9.91611L13.0256 10.17C13.0304 10.175 13.0322 10.1821 13.0304 10.1888L12.9054 10.6419C12.9033 10.6494 12.897 10.6549 12.8893 10.656C12.8816 10.6571 12.874 10.6535 12.87 10.6469L12.7202 10.4018L12.6395 10.6505C12.6372 10.6577 12.631 10.6629 12.6235 10.6639C12.6161 10.6648 12.6087 10.6614 12.6046 10.6551L12.4505 10.4172L12.3744 10.7697L12.3363 10.7615L12.4195 10.3756L12.2511 10.1216L12.2452 10.1421L12.2077 10.1313L12.2228 10.0789L12.1594 9.98343L12.1919 9.96188L12.2369 10.0297L12.3331 9.69427L12.246 9.57811L12.2772 9.55471L12.4819 9.82758ZM12.4618 10.363L12.6151 10.5995L12.6962 10.3495C12.6985 10.3422 12.7049 10.337 12.7125 10.3361C12.72 10.3352 12.7274 10.3388 12.7314 10.3453L12.8798 10.5881L12.9898 10.1892L12.7754 9.96786L12.7101 10.2082C12.7082 10.2154 12.7023 10.2209 12.695 10.2223C12.6877 10.2237 12.6802 10.2208 12.6757 10.2149L12.5231 10.0124L12.4618 10.363Z" fill="#C09300"/>
<path fill-rule="evenodd" clip-rule="evenodd" d="M12.8874 10.6175C12.8947 10.6162 12.9021 10.6193 12.9064 10.6253L13.0666 10.848L13.0349 10.8707L12.898 10.6804L12.8078 10.986C12.8056 10.9934 12.7992 10.9988 12.7915 10.9998C12.7838 11.0008 12.7763 10.9971 12.7723 10.9904L12.6498 10.7852L12.5693 11.0333L12.5322 11.0213L12.626 10.7322C12.6283 10.725 12.6347 10.7197 12.6423 10.7189C12.6499 10.718 12.6573 10.7217 12.6613 10.7283L12.783 10.9322L12.8719 10.6312C12.874 10.624 12.88 10.6187 12.8874 10.6175Z" fill="#C09300"/>
<path d="M12 11.8125C12.6016 11.8125 13.1719 11.7656 13.5078 11.6719C13.6484 11.6445 13.6484 11.5742 13.6484 11.4766C13.7891 11.4297 13.7188 11.2617 13.8164 11.2617C13.7148 11.293 13.6992 11.0976 13.5781 11.1211C13.5781 10.9531 13.4062 10.9336 13.2656 10.9805C12.9805 11.0742 12.4766 11.0976 12 11.0976C11.5195 11.0742 11.0234 11.0742 10.7344 10.9766C10.5938 10.9336 10.4258 10.9531 10.4258 11.1211C10.3047 11.0976 10.2852 11.2891 10.1836 11.2617C10.2852 11.2617 10.2109 11.4336 10.3516 11.4766C10.3516 11.5742 10.3516 11.6445 10.4961 11.6719C10.8281 11.7656 11.4023 11.8125 12 11.8125Z" fill="white"/>
<path fill-rule="evenodd" clip-rule="evenodd" d="M10.5156 10.9357C10.5851 10.9118 10.6706 10.9194 10.7449 10.9421L10.7459 10.9424L10.7459 10.9424C10.8857 10.9897 11.0779 11.0139 11.2979 11.029C11.4361 11.0385 11.5832 11.0443 11.7334 11.0502C11.8219 11.0537 11.9114 11.0573 12.0009 11.0616C12.2384 11.0616 12.4821 11.0558 12.7017 11.0383C12.9222 11.0208 13.116 10.9918 13.2544 10.9462L13.2656 10.9804L13.2542 10.9463C13.3289 10.9214 13.4154 10.9127 13.4859 10.936C13.5218 10.9479 13.5544 10.9684 13.578 11.0002C13.5953 11.0236 13.6066 11.0516 13.6115 11.0838C13.6351 11.0864 13.6556 11.0956 13.6733 11.1084C13.6984 11.1266 13.7179 11.1522 13.7333 11.1726L13.7338 11.1733C13.7506 11.1954 13.7625 11.2113 13.7753 11.2211C13.7808 11.2253 13.7857 11.2279 13.7909 11.2287C13.7991 11.2267 13.8076 11.2257 13.8164 11.2257C13.8342 11.2257 13.8494 11.2387 13.852 11.2563C13.8547 11.274 13.844 11.2909 13.827 11.2961C13.8192 11.2985 13.8117 11.3 13.8044 11.3007C13.8033 11.3016 13.8018 11.3033 13.8001 11.3064C13.7946 11.316 13.7913 11.3291 13.786 11.3501C13.7852 11.3533 13.7844 11.3568 13.7834 11.3604C13.7772 11.3847 13.7686 11.4152 13.7503 11.443C13.7352 11.466 13.7141 11.4862 13.6844 11.5007C13.684 11.5402 13.6814 11.582 13.6627 11.6174C13.6381 11.6639 13.5909 11.6921 13.5161 11.7069C13.1751 11.8018 12.6014 11.8485 12 11.8485C11.4026 11.8485 10.8251 11.8018 10.4878 11.7069C10.4115 11.6922 10.3633 11.6642 10.338 11.6178C10.3188 11.5824 10.316 11.5406 10.3156 11.5012C10.2861 11.4874 10.265 11.4675 10.2501 11.4445C10.232 11.4167 10.2238 11.3858 10.2179 11.3615C10.2172 11.3584 10.2165 11.3555 10.2158 11.3527C10.2105 11.3307 10.2072 11.3169 10.2016 11.307C10.1992 11.3028 10.1972 11.301 10.1959 11.3001C10.1958 11.3001 10.1957 11.3001 10.1957 11.3C10.1943 11.2992 10.1911 11.2977 10.1836 11.2977V11.2617L10.193 11.2269C10.198 11.2283 10.2025 11.2287 10.2068 11.2281C10.213 11.2273 10.2188 11.2244 10.2254 11.2193C10.2385 11.2093 10.2508 11.1938 10.2675 11.1726C10.268 11.1719 10.2686 11.1712 10.2691 11.1706C10.285 11.1503 10.3051 11.1252 10.3306 11.1074C10.3484 11.0951 10.3689 11.0862 10.3924 11.0838C10.3971 11.0517 10.4082 11.0238 10.4251 11.0005C10.4482 10.9686 10.4803 10.9478 10.5156 10.9357ZM13.7331 11.2794C13.7325 11.279 13.732 11.2786 13.7314 11.2782C13.7106 11.2622 13.6932 11.2391 13.6791 11.2203C13.678 11.2188 13.6769 11.2174 13.6759 11.216C13.6595 11.1944 13.6461 11.1776 13.6311 11.1667C13.6179 11.1572 13.6042 11.1527 13.585 11.1564C13.5744 11.1585 13.5635 11.1557 13.5552 11.1488C13.5469 11.142 13.5421 11.1318 13.5421 11.1211C13.5421 11.0854 13.5331 11.0606 13.5201 11.0431C13.5071 11.0255 13.488 11.0125 13.4633 11.0044C13.4127 10.9876 13.343 10.9926 13.277 11.0146L13.2769 11.0146C13.1301 11.0629 12.9294 11.0924 12.7074 11.1101C12.4849 11.1278 12.2388 11.1336 12 11.1336H11.9982L11.9982 11.1336C11.91 11.1293 11.8208 11.1258 11.7323 11.1223C11.5812 11.1163 11.432 11.1104 11.2929 11.1008C11.0727 11.0857 10.8726 11.0611 10.7234 11.0108C10.6572 10.9907 10.5886 10.9867 10.5391 11.0037C10.5149 11.0121 10.4962 11.025 10.4834 11.0427C10.4706 11.0603 10.4618 11.0852 10.4618 11.1211C10.4618 11.1318 10.457 11.142 10.4487 11.1488C10.4404 11.1557 10.4295 11.1585 10.4189 11.1564C10.3995 11.1527 10.3853 11.1571 10.3717 11.1666C10.3563 11.1773 10.3424 11.1939 10.3256 11.2151C10.3244 11.2166 10.3232 11.2182 10.322 11.2198C10.3075 11.2383 10.2898 11.2608 10.2691 11.2766C10.2686 11.277 10.2681 11.2774 10.2675 11.2778C10.2765 11.2962 10.2817 11.3182 10.2859 11.3362C10.2866 11.3391 10.2873 11.3419 10.2879 11.3445C10.2937 11.3685 10.2997 11.3887 10.3105 11.4052C10.3203 11.4204 10.3352 11.4339 10.3621 11.4421C10.3772 11.4467 10.3876 11.4607 10.3876 11.4765C10.3876 11.5282 10.3885 11.5598 10.4013 11.5834C10.4119 11.603 10.4355 11.6238 10.5028 11.6365L10.5059 11.6371L10.5059 11.6372C10.8329 11.7295 11.4029 11.7765 12 11.7765C12.6009 11.7765 13.1671 11.7296 13.4981 11.6372L13.5009 11.6364L13.5009 11.6365C13.566 11.6239 13.5887 11.6033 13.599 11.5837C13.6116 11.56 13.6124 11.5282 13.6124 11.4765C13.6124 11.461 13.6224 11.4473 13.6371 11.4424C13.6644 11.4333 13.6798 11.4192 13.6902 11.4034C13.7013 11.3865 13.7076 11.3663 13.7137 11.3426C13.7144 11.3398 13.7151 11.3368 13.7159 11.3338C13.72 11.317 13.725 11.2967 13.7331 11.2794Z" fill="#C09300"/>
<path d="M11.1875 10.9063C11.379 10.9336 11.5938 10.9531 11.7618 10.9336C11.8594 10.9336 11.9297 11.0977 11.7344 11.1211C11.5704 11.1406 11.3086 11.1211 11.1641 11.0977C10.9805 11.0664 10.7969 11.0234 10.6133 10.9766C10.4454 10.9063 10.5665 10.7656 10.6602 10.7852C10.8321 10.8399 11.0079 10.8789 11.1875 10.9063ZM12.8125 10.9063C12.6211 10.9336 12.4063 10.9531 12.2422 10.9336C12.1407 10.9336 12.0704 11.0977 12.2657 11.1211C12.4336 11.1406 12.6914 11.1211 12.836 11.0977C12.9532 11.0742 13.2188 11.0274 13.3868 10.9766C13.5547 10.9063 13.4336 10.7656 13.3399 10.7852C13.168 10.8399 12.9922 10.8789 12.8125 10.9063Z" fill="white"/>
<path fill-rule="evenodd" clip-rule="evenodd" d="M10.6195 10.958C10.581 10.9417 10.5621 10.9226 10.5542 10.9059C10.5464 10.8894 10.5477 10.8723 10.556 10.856C10.5644 10.8393 10.5799 10.8241 10.5988 10.8142C10.6173 10.8044 10.6374 10.8006 10.6553 10.804C10.8279 10.8589 11.0044 10.8981 11.1846 10.9255L11.1846 10.9255L11.1848 10.9255C11.376 10.9529 11.5923 10.9727 11.7628 10.9531C11.8008 10.9537 11.8344 10.9865 11.8386 11.0209C11.8405 11.0371 11.836 11.0536 11.8212 11.0679M11.7321 11.1017C11.5705 11.1209 11.3109 11.1017 11.1673 11.0784C10.9849 11.0474 10.8024 11.0047 10.6195 10.958M10.5806 10.7797C10.6056 10.7665 10.6354 10.7601 10.6641 10.766L10.6661 10.7665L10.6661 10.7666C10.8368 10.8209 11.0116 10.8597 11.1904 10.8869C11.3815 10.9142 11.5942 10.9334 11.7595 10.9142L11.7617 10.9139V10.9141C11.8209 10.9141 11.8708 10.963 11.8773 11.0162C11.8807 11.0439 11.8723 11.0728 11.8483 11.0959C11.8249 11.1186 11.788 11.1343 11.7367 11.1404L11.7367 11.1404C11.5701 11.1603 11.3064 11.1405 11.161 11.1169L11.1608 11.1169L11.1608 11.1169C10.9765 11.0855 10.7923 11.0424 10.6085 10.9954L10.6057 10.9947L10.6058 10.9945C10.5611 10.9759 10.5325 10.9512 10.519 10.9226C10.5051 10.8935 10.5084 10.8635 10.5212 10.8383C10.5337 10.8135 10.5556 10.7928 10.5806 10.7797ZM13.4811 10.9226C13.4675 10.9512 13.4389 10.9759 13.3943 10.9945L13.3924 10.9953L13.3924 10.9952C13.254 11.037 13.0501 11.0762 12.9168 11.1018C12.8871 11.1075 12.8609 11.1125 12.8398 11.1168L12.8391 11.1169L12.8391 11.1169C12.6936 11.1405 12.4338 11.1603 12.2634 11.1404L12.2633 11.1404C12.212 11.1343 12.1751 11.1186 12.1517 11.0959C12.1278 11.0727 12.1196 11.0438 12.1233 11.016C12.1304 10.9625 12.1815 10.9141 12.2422 10.9141H12.2445L12.2445 10.9142C12.4058 10.9334 12.6185 10.9142 12.8097 10.8869C12.9885 10.8597 13.1632 10.8209 13.3339 10.7666L13.3359 10.7659L13.3359 10.766C13.3647 10.7601 13.3944 10.7665 13.4194 10.7797C13.4444 10.7928 13.4663 10.8135 13.4788 10.8383C13.4916 10.8635 13.4949 10.8935 13.4811 10.9226ZM13.3448 10.804C13.1721 10.8589 12.9956 10.8981 12.8154 10.9255L12.8153 10.9255C12.6241 10.9528 12.4077 10.9727 12.2411 10.9531C12.2007 10.9537 12.1665 10.987 12.1619 11.0211C12.1598 11.0372 12.1642 11.0537 12.1789 11.0679C12.194 11.0826 12.2216 11.0962 12.268 11.1017L12.2656 11.1211L12.2679 11.1017C12.4333 11.1209 12.6888 11.1017 12.8325 11.0784C12.8541 11.0741 12.8806 11.069 12.9105 11.0633C13.0437 11.0377 13.244 10.9992 13.3801 10.9582C13.4189 10.9418 13.4379 10.9227 13.4458 10.9059C13.4536 10.8894 13.4523 10.8723 13.444 10.856C13.4356 10.8393 13.4201 10.8241 13.4013 10.8142C13.3828 10.8044 13.3626 10.8006 13.3448 10.804Z" fill="#C09300"/>
<path d="M10.5898 10.8125C10.4453 10.7852 10.3789 10.9532 10.4258 11.0508C10.4453 11 10.5469 11 10.5664 10.9532C10.5937 10.8829 10.5469 10.8829 10.5937 10.8125H10.5898ZM11.164 11.2539C11.164 11.1563 11.2578 11.168 11.2578 11.0743C11.2578 11.0274 11.2344 10.9532 11.1875 10.9532C11.1601 10.9532 11.1367 10.9649 11.1211 10.9844C11.1015 11 11.0937 11.0235 11.0898 11.0508C11.0703 11.1407 11.164 11.1563 11.164 11.2539ZM11.8476 10.9805C11.9883 10.9805 11.9726 11.168 11.9062 11.2657C11.9062 11.1954 11.7851 11.168 11.7851 11.1211C11.7851 11.0508 11.8945 11.0508 11.8476 10.9805ZM13.4062 10.8125C13.5547 10.7852 13.6211 10.9532 13.5742 11.0508C13.5547 11 13.4531 11 13.4336 10.9532C13.4062 10.8829 13.4531 10.8829 13.4062 10.8125ZM12.8398 11.25C12.8398 11.1524 12.7422 11.1641 12.7422 11.0704C12.7422 11.0235 12.7695 10.9493 12.8164 10.9493C12.8398 10.9532 12.8633 10.961 12.8828 10.9805C12.8984 10.9961 12.9101 11.0196 12.9101 11.0469C12.9336 11.1407 12.8359 11.1524 12.8359 11.25H12.8398ZM12.1484 10.9805C12.0078 10.9805 12.0234 11.168 12.0898 11.2657C12.0898 11.1954 12.2109 11.168 12.2109 11.1211C12.2109 11.0508 12.1015 11.0508 12.1484 10.9805Z" fill="white"/>
<path fill-rule="evenodd" clip-rule="evenodd" d="M10.5916 10.793C10.5107 10.7785 10.451 10.8189 10.419 10.8752C10.3875 10.9307 10.3816 11.0039 10.4082 11.0592C10.4115 11.0663 10.4187 11.0706 10.4265 11.0703C10.4343 11.07 10.4411 11.0651 10.4439 11.0578C10.4467 11.0506 10.4528 11.044 10.4636 11.0372C10.4744 11.0304 10.4879 11.0248 10.5033 11.0186C10.5042 11.0182 10.5051 11.0179 10.5059 11.0176C10.5199 11.0119 10.5355 11.0056 10.5488 10.9979C10.5629 10.9895 10.5771 10.978 10.5844 10.9606L10.5844 10.9606L10.5845 10.9602C10.5921 10.9408 10.5948 10.9253 10.5951 10.9117C10.5953 10.9012 10.5938 10.8918 10.5927 10.8847C10.5924 10.8831 10.5922 10.8815 10.592 10.8802C10.591 10.8725 10.5906 10.8664 10.5925 10.8588C10.5944 10.8508 10.599 10.8398 10.6099 10.8233C10.6139 10.8174 10.6143 10.8097 10.6109 10.8033C10.6075 10.797 10.6009 10.793 10.5937 10.793H10.5916ZM10.5618 10.8291C10.5117 10.8281 10.475 10.8556 10.453 10.8944C10.4328 10.9299 10.4259 10.9735 10.4331 11.0109C10.4363 11.0085 10.4396 11.0062 10.4429 11.0042C10.4571 10.9952 10.4739 10.9884 10.4888 10.9824C10.4893 10.9822 10.4898 10.982 10.4903 10.9818C10.5053 10.9758 10.5183 10.9705 10.529 10.9642C10.5399 10.9578 10.5457 10.9518 10.5483 10.9458M13.4381 10.8291C13.4414 10.8364 13.4438 10.8432 13.4454 10.8497C13.4488 10.8641 13.4479 10.8756 13.4465 10.8855C13.4462 10.8878 13.4459 10.89 13.4456 10.892C13.4445 10.8987 13.4437 10.9041 13.4438 10.9111M13.4381 10.8291C13.4882 10.8292 13.5247 10.8566 13.5465 10.8945C13.567 10.93 13.5739 10.9735 13.5668 11.0109C13.5636 11.0085 13.5603 11.0062 13.5571 11.0042C13.5428 10.9952 13.526 10.9884 13.5112 10.9824L13.5096 10.9818C13.4947 10.9758 13.4816 10.9705 13.4709 10.9642C13.46 10.9578 13.4542 10.9518 13.4516 10.9458M13.5803 10.875C13.6124 10.9306 13.6183 11.0039 13.5918 11.0592C13.5884 11.0663 13.5812 11.0706 13.5734 11.0703C13.5656 11.07 13.5588 11.0651 13.556 11.0578C13.5532 11.0506 13.5471 11.044 13.5364 11.0372C13.5255 11.0304 13.512 11.0248 13.4966 11.0186L13.494 11.0176C13.48 11.0119 13.4644 11.0056 13.4511 10.9979C13.437 10.9895 13.4228 10.978 13.4155 10.9606L13.4154 10.9602L13.4154 10.9602C13.4078 10.9408 13.4051 10.9253 13.4048 10.9117C13.4047 10.9012 13.4061 10.8918 13.4072 10.8847C13.4075 10.8831 13.4077 10.8815 13.4079 10.8802C13.4089 10.8725 13.4093 10.8664 13.4074 10.8588C13.4055 10.8508 13.4009 10.8398 13.39 10.8233C13.3863 10.8179 13.3857 10.811 13.3882 10.8049C13.3908 10.7989 13.3962 10.7945 13.4027 10.7933C13.4862 10.778 13.5475 10.8182 13.5803 10.875ZM12.779 11.0012C12.7677 11.0228 12.7616 11.05 12.7616 11.0703C12.7616 11.09 12.7666 11.103 12.7736 11.1133C12.781 11.1244 12.7911 11.1331 12.8037 11.1439L12.8038 11.144C12.8141 11.1529 12.8261 11.1632 12.8361 11.1765C12.8443 11.1624 12.8539 11.1505 12.8626 11.1398C12.8639 11.1381 12.8653 11.1364 12.8666 11.1348C12.8773 11.1214 12.8855 11.1102 12.8901 11.0977C12.8945 11.0858 12.8962 11.0715 12.8912 11.0516L12.89 11.0469H12.8906C12.8906 11.0252 12.8813 11.0066 12.869 10.9943C12.8539 10.9792 12.8356 10.9724 12.815 10.9688C12.8032 10.9695 12.7903 10.9795 12.779 11.0012ZM12.8576 11.2275C12.863 11.2016 12.8774 11.1835 12.8938 11.1632C12.8948 11.1619 12.8959 11.1605 12.897 11.1592C12.9078 11.1457 12.9196 11.1303 12.9267 11.1112C12.9338 11.0921 12.9357 11.0704 12.9296 11.0445C12.9289 11.0125 12.915 10.9852 12.8966 10.9667C12.873 10.9432 12.8451 10.9343 12.8196 10.93L12.8196 10.9297H12.8164C12.7816 10.9297 12.758 10.957 12.7444 10.9832C12.7302 11.0104 12.7226 11.0438 12.7226 11.0703C12.7226 11.0976 12.7299 11.1182 12.7412 11.1351C12.7517 11.1507 12.7654 11.1624 12.7769 11.1723L12.7783 11.1735C12.7907 11.1842 12.8008 11.1931 12.8082 11.2045C12.8123 11.211 12.8158 11.2184 12.818 11.2278C12.817 11.2348 12.8164 11.2422 12.8164 11.25C12.8164 11.2608 12.8251 11.2695 12.8359 11.2695H12.8398C12.8506 11.2695 12.8593 11.2608 12.8593 11.25C12.8593 11.242 12.8587 11.2345 12.8576 11.2275ZM11.1072 10.9706C11.1265 10.9474 11.155 10.9336 11.1875 10.9336C11.2226 10.9336 11.2451 10.9614 11.2578 10.9877C11.2709 11.015 11.2773 11.0482 11.2773 11.0742C11.2773 11.1013 11.2704 11.1218 11.2595 11.1387C11.2494 11.1543 11.2363 11.1661 11.2252 11.176C11.2248 11.1764 11.2243 11.1768 11.2239 11.1771C11.212 11.1878 11.2023 11.1967 11.1952 11.2082C11.1885 11.219 11.1835 11.233 11.1835 11.2539C11.1835 11.2647 11.1748 11.2734 11.164 11.2734C11.1532 11.2734 11.1445 11.2647 11.1445 11.2539C11.1445 11.2138 11.1266 11.1906 11.1062 11.164C11.1055 11.1631 11.1048 11.1622 11.1041 11.1613C11.0937 11.1477 11.0821 11.1323 11.075 11.1137C11.0676 11.0947 11.0651 11.0732 11.0706 11.0474C11.0747 11.0194 11.0832 10.9907 11.1072 10.9706ZM11.1657 11.1821C11.1573 11.1664 11.1472 11.1533 11.138 11.1414C11.137 11.1401 11.136 11.1388 11.135 11.1376C11.1245 11.1238 11.1163 11.1124 11.1113 11.0997C11.1067 11.0877 11.1048 11.0737 11.1089 11.0549L11.1089 11.055L11.1091 11.0536C11.1128 11.0277 11.1196 11.0105 11.1332 10.9996L11.1335 11L11.1363 10.9966C11.1482 10.9817 11.166 10.9726 11.1875 10.9726C11.1992 10.9726 11.2118 10.982 11.2226 11.0046C11.2329 11.0261 11.2383 11.0534 11.2383 11.0742C11.2383 11.094 11.2334 11.1072 11.2267 11.1176C11.2196 11.1286 11.21 11.1373 11.1979 11.1481L11.1978 11.1482C11.1875 11.1574 11.1755 11.1681 11.1657 11.1821ZM11.8304 10.9713C11.8338 10.9649 11.8404 10.961 11.8476 10.961C11.8875 10.961 11.9184 10.9745 11.9399 10.9982C11.9609 11.0215 11.971 11.0525 11.974 11.0847C11.9798 11.1487 11.9578 11.2244 11.9223 11.2766C11.9175 11.2837 11.9086 11.2868 11.9005 11.2843C11.8923 11.2818 11.8867 11.2742 11.8867 11.2656C11.8867 11.2542 11.8819 11.2436 11.8725 11.2327C11.8628 11.2215 11.8495 11.2112 11.8344 11.2005C11.8316 11.1985 11.8288 11.1965 11.8259 11.1945C11.8138 11.1861 11.801 11.1771 11.791 11.1681C11.7788 11.157 11.7656 11.1416 11.7656 11.1211C11.7656 11.0796 11.7957 11.056 11.8152 11.0408C11.8175 11.039 11.8196 11.0373 11.8216 11.0357C11.8325 11.0268 11.8374 11.0211 11.8391 11.0161C11.8402 11.0128 11.8412 11.006 11.8314 10.9913C11.8274 10.9853 11.827 10.9776 11.8304 10.9713ZM11.8782 11.0041C11.8923 11.0083 11.9029 11.0155 11.911 11.0244C11.9245 11.0394 11.9327 11.0613 11.9351 11.0882C11.9388 11.1292 11.9289 11.1774 11.9104 11.2181C11.9078 11.2143 11.905 11.2107 11.9021 11.2073C11.889 11.1921 11.8721 11.1795 11.8569 11.1687C11.8536 11.1663 11.8503 11.164 11.8471 11.1618C11.8353 11.1535 11.8252 11.1464 11.8171 11.1391C11.8066 11.1296 11.8046 11.1241 11.8046 11.1211C11.8046 11.0996 11.8185 11.0883 11.8395 11.0714C11.8417 11.0697 11.8439 11.0678 11.8463 11.0659C11.8569 11.0572 11.8705 11.0453 11.8761 11.0284C11.8788 11.0204 11.8794 11.0123 11.8782 11.0041ZM12.0561 10.9982C12.0776 10.9745 12.1085 10.961 12.1484 10.961C12.1556 10.961 12.1622 10.9649 12.1656 10.9713C12.169 10.9776 12.1686 10.9853 12.1646 10.9913C12.1548 11.006 12.1558 11.0128 12.1569 11.0161C12.1586 11.0211 12.1635 11.0268 12.1744 11.0357C12.1764 11.0373 12.1785 11.039 12.1808 11.0408C12.2003 11.056 12.2304 11.0796 12.2304 11.1211C12.2304 11.1416 12.2172 11.157 12.205 11.1681C12.195 11.1771 12.1822 11.1861 12.1701 11.1945C12.1672 11.1965 12.1644 11.1985 12.1616 11.2005C12.1465 11.2112 12.1332 11.2215 12.1235 11.2327C12.1141 11.2436 12.1093 11.2542 12.1093 11.2656C12.1093 11.2742 12.1037 11.2818 12.0955 11.2843C12.0874 11.2868 12.0785 11.2837 12.0737 11.2766C12.0382 11.2244 12.0162 11.1487 12.022 11.0847C12.025 11.0525 12.0351 11.0215 12.0561 10.9982ZM12.0856 11.2181C12.0671 11.1774 12.0572 11.1292 12.0609 11.0882C12.0633 11.0613 12.0715 11.0394 12.085 11.0244C12.0931 11.0155 12.1037 11.0083 12.1178 11.0041C12.1166 11.0123 12.1172 11.0204 12.1199 11.0284C12.1255 11.0453 12.1391 11.0572 12.1497 11.0659C12.1521 11.0678 12.1543 11.0697 12.1566 11.0714C12.1775 11.0883 12.1914 11.0996 12.1914 11.1211C12.1914 11.1241 12.1894 11.1296 12.1789 11.1391C12.1708 11.1464 12.1607 11.1535 12.1489 11.1618C12.1457 11.164 12.1424 11.1663 12.1391 11.1687C12.1239 11.1795 12.107 11.1921 12.0939 11.2073C12.091 11.2107 12.0882 11.2143 12.0856 11.2181Z" fill="#C09300"/>
<path d="M10.6406 10.8594C10.6875 10.8594 10.7617 10.8828 10.7812 10.9062L10.6406 10.8594ZM10.8789 10.9336C10.9023 10.9336 10.9961 10.9531 11.043 10.9805L10.8789 10.9336ZM11.7344 11.0273C11.6914 11.0273 11.5937 11.0273 11.5703 11.0508L11.7344 11.0234V11.0273ZM11.4766 11.0273C11.4492 11 11.3555 11 11.3086 11.0273H11.4766ZM13.3594 10.8594C13.3086 10.8594 13.2578 10.8789 13.2188 10.9062L13.3594 10.8594ZM13.125 10.9336C13.0938 10.9336 13.0039 10.9531 12.957 10.9805L13.125 10.9336ZM12.2656 11.0273C12.3086 11.0273 12.4062 11.0273 12.4336 11.0508L12.2656 11.0234V11.0273ZM12.5234 11.0273C12.5508 11 12.6445 11 12.6914 11.0273H12.5234Z" fill="white"/>
<path fill-rule="evenodd" clip-rule="evenodd" d="M10.6274 10.8572C10.6284 10.8506 10.6341 10.8458 10.6407 10.8458C10.666 10.8458 10.6977 10.8521 10.7255 10.8611C10.7394 10.8657 10.7527 10.8711 10.764 10.877C10.775 10.8828 10.7851 10.8897 10.7917 10.8976C10.7956 10.9022 10.7959 10.9088 10.7925 10.9138C10.7891 10.9188 10.7828 10.9209 10.7771 10.919L10.6364 10.8721C10.6301 10.87 10.6263 10.8637 10.6274 10.8572ZM13.2111 10.8951C13.252 10.8665 13.3054 10.8458 13.3594 10.8458C13.3661 10.8458 13.3717 10.8506 13.3728 10.8572C13.3738 10.8637 13.37 10.87 13.3637 10.8721L13.2231 10.919C13.2167 10.9211 13.2098 10.9183 13.2068 10.9123C13.2038 10.9063 13.2056 10.899 13.2111 10.8951ZM10.8656 10.9317C10.8665 10.925 10.8722 10.92 10.879 10.92C10.8925 10.92 10.9233 10.9253 10.9556 10.9337C10.9881 10.942 11.0247 10.9541 11.0498 10.9688C11.0557 10.9722 11.0581 10.9795 11.0555 10.9857C11.0528 10.992 11.0459 10.9953 11.0393 10.9934L10.8753 10.9465C10.8688 10.9447 10.8647 10.9383 10.8656 10.9317ZM13.0436 10.9337C13.0761 10.9253 13.1077 10.92 13.1251 10.92C13.1318 10.92 13.1375 10.925 13.1384 10.9317C13.1394 10.9384 13.1352 10.9447 13.1287 10.9465L12.9607 10.9934C12.9542 10.9952 12.9473 10.9919 12.9447 10.9857C12.942 10.9794 12.9444 10.9722 12.9503 10.9688C12.9753 10.9542 13.0109 10.9421 13.0436 10.9337ZM11.4488 10.9988C11.4632 11.0025 11.4769 11.0084 11.4862 11.0177C11.49 11.0216 11.4912 11.0274 11.4891 11.0325C11.487 11.0375 11.4821 11.0408 11.4766 11.0408H11.3087C11.3026 11.0408 11.2972 11.0367 11.2956 11.0308C11.294 11.0249 11.2966 11.0187 11.3019 11.0156C11.3281 11.0003 11.3659 10.9933 11.4 10.9933C11.4172 10.9933 11.4341 10.9951 11.4488 10.9988ZM12.6002 10.9933C12.6342 10.9933 12.672 11.0003 12.6983 11.0156C12.7036 11.0187 12.7061 11.0249 12.7045 11.0308C12.7029 11.0367 12.6976 11.0408 12.6915 11.0408H12.5235C12.5181 11.0408 12.5131 11.0375 12.511 11.0325C12.5089 11.0274 12.5101 11.0216 12.514 11.0177C12.5233 11.0084 12.537 11.0025 12.5514 10.9988C12.566 10.9951 12.583 10.9933 12.6002 10.9933ZM11.7432 11.0131C11.7462 11.0157 11.7479 11.0194 11.7479 11.0234V11.0273C11.7479 11.0347 11.7419 11.0408 11.7344 11.0408C11.7279 11.0408 11.7202 11.0408 11.7116 11.0409L11.5726 11.064C11.5668 11.065 11.5611 11.0621 11.5584 11.0569C11.5557 11.0517 11.5567 11.0453 11.5608 11.0412C11.5695 11.0326 11.5831 11.0275 11.5966 11.0241C11.6107 11.0205 11.6272 11.0183 11.6439 11.0168C11.6663 11.0148 11.6898 11.0141 11.7093 11.0139L11.7322 11.0101C11.7361 11.0094 11.7401 11.0105 11.7432 11.0131ZM12.257 11.0131C12.26 11.0105 12.264 11.0094 12.2679 11.0101L12.2915 11.0139C12.3109 11.0141 12.3342 11.0148 12.3567 11.0168C12.3737 11.0183 12.3905 11.0205 12.4051 11.0241C12.4192 11.0275 12.4331 11.0325 12.4425 11.0405C12.447 11.0444 12.4485 11.0509 12.4459 11.0564C12.4434 11.0619 12.4375 11.065 12.4315 11.0641L12.2891 11.0409C12.2804 11.0408 12.2724 11.0408 12.2657 11.0408C12.2582 11.0408 12.2522 11.0347 12.2522 11.0273V11.0234C12.2522 11.0194 12.2539 11.0157 12.257 11.0131Z" fill="#C09300"/>
<path d="M10.5977 11.2383C10.586 11.2344 10.5743 11.2188 10.5821 11.207C10.586 11.1875 10.5977 11.1797 10.6095 11.1836C10.6212 11.1836 10.6368 11.2031 10.6368 11.207L10.6251 11.2305H10.6212C10.6212 11.2383 10.6095 11.2383 10.5977 11.2383ZM12.2501 11.3555C12.2423 11.3555 12.2306 11.3398 12.2306 11.3359C12.2306 11.3203 12.2501 11.3047 12.2618 11.3047L12.2852 11.3164C12.2931 11.3242 12.2931 11.3437 12.2813 11.3516C12.2774 11.3594 12.2579 11.3594 12.2501 11.3516V11.3555ZM12.2579 11.4297C12.2462 11.4258 12.2423 11.418 12.2384 11.4062C12.2384 11.3906 12.2384 11.3867 12.254 11.3789L12.2657 11.3711L12.2774 11.3789C12.2891 11.3867 12.3009 11.3906 12.3009 11.4023C12.3009 11.4102 12.2891 11.4219 12.2774 11.4258C12.2696 11.4336 12.2657 11.4336 12.2579 11.4258V11.4297Z" fill="#C09300"/>
<path d="M10.7344 11.1016C10.7227 11.1016 10.707 11.1133 10.6992 11.1172C10.6797 11.1211 10.6562 11.1328 10.6367 11.1172C10.6211 11.1133 10.5977 11.1172 10.5938 11.1406C10.5977 11.1641 10.6211 11.1719 10.6406 11.1602C10.6523 11.1445 10.6875 11.1328 10.6914 11.1602C10.6758 11.1836 10.6797 11.2109 10.668 11.2305C10.668 11.2461 10.6602 11.2578 10.6523 11.2695C10.6367 11.2695 10.6211 11.2695 10.6094 11.2813C10.6016 11.2813 10.5938 11.2813 10.5859 11.2852C10.5742 11.2891 10.5703 11.2969 10.5625 11.3047C10.5508 11.3203 10.5391 11.3398 10.5352 11.3633C10.5391 11.3828 10.5664 11.3867 10.5859 11.3906L10.6445 11.4102L10.7383 11.4375C10.7891 11.4492 10.8359 11.457 10.8828 11.4688L10.8984 11.4727C10.9219 11.4766 10.9297 11.457 10.9297 11.4414L10.9609 11.3359C10.9648 11.3203 10.9727 11.2891 10.9453 11.2969C10.9336 11.3047 10.918 11.3203 10.8984 11.3203C10.8711 11.3203 10.8867 11.3477 10.8984 11.3594C10.8984 11.375 10.8945 11.3984 10.8828 11.4102C10.8672 11.4219 10.8477 11.4102 10.8281 11.4063C10.8164 11.4063 10.7773 11.3984 10.793 11.375L10.8086 11.3203C10.8164 11.3047 10.8164 11.2813 10.8242 11.2617C10.8125 11.2422 10.793 11.2695 10.7773 11.2734C10.7656 11.2813 10.7305 11.2813 10.75 11.3047C10.7656 11.3164 10.7539 11.3359 10.75 11.3555C10.75 11.375 10.7266 11.3867 10.707 11.375C10.6875 11.375 10.6602 11.3594 10.6758 11.3438L10.6914 11.2891L10.7148 11.2305C10.7148 11.207 10.7227 11.1914 10.7305 11.1758C10.7305 11.1523 10.7461 11.1367 10.7461 11.1133C10.7461 11.1055 10.7383 11.1016 10.7344 11.1016ZM10.6211 11.3203C10.625 11.3164 10.625 11.3164 10.6289 11.3164C10.6289 11.3164 10.6289 11.3164 10.6328 11.3203C10.6367 11.3242 10.6367 11.332 10.6328 11.3359L10.6211 11.3438C10.6094 11.3438 10.6055 11.3398 10.6055 11.3359C10.6055 11.332 10.6055 11.3281 10.6133 11.3242C10.6172 11.3242 10.6211 11.3203 10.625 11.3203H10.6211ZM10.5938 11.4688C10.5781 11.457 10.582 11.4492 10.6016 11.4297C10.6133 11.4258 10.6172 11.4258 10.6289 11.4336C10.6484 11.4492 10.6484 11.457 10.6289 11.4727C10.6211 11.4766 10.6211 11.4766 10.6133 11.4766C10.6055 11.4766 10.6016 11.4766 10.5938 11.4727V11.4688ZM10.6836 11.5C10.6758 11.4961 10.6719 11.4922 10.668 11.4844C10.6641 11.4805 10.6641 11.4727 10.6641 11.4648C10.6719 11.4531 10.6758 11.4492 10.6914 11.4492C10.7148 11.4492 10.7148 11.4531 10.7188 11.4727C10.7188 11.4844 10.7188 11.4883 10.7109 11.4922C10.707 11.4961 10.7031 11.4961 10.6992 11.5C10.6953 11.5 10.6914 11.5 10.6875 11.5H10.6836ZM13.3594 11.5C13.3516 11.4961 13.3516 11.4922 13.3516 11.4844C13.3516 11.4727 13.3555 11.4648 13.375 11.457C13.3906 11.4492 13.4023 11.4492 13.4102 11.4648C13.418 11.4805 13.418 11.4883 13.4062 11.5C13.4023 11.5078 13.3984 11.5078 13.3828 11.5078C13.3672 11.5078 13.3633 11.5078 13.3594 11.5039V11.5ZM10.8086 11.5352C10.7969 11.5352 10.7891 11.5234 10.7891 11.5117C10.7891 11.5039 10.7891 11.5 10.7969 11.4922L10.8164 11.4883H10.832C10.8477 11.5039 10.8516 11.5156 10.8438 11.5273C10.832 11.5391 10.8242 11.5391 10.8047 11.5352H10.8086ZM11.4648 11.5664L11.457 11.5547C11.457 11.5391 11.457 11.5234 11.4648 11.5039C11.4648 11.4883 11.4648 11.4766 11.4688 11.4609L11.4805 11.375C11.4805 11.3594 11.4805 11.3477 11.4883 11.3359C11.4883 11.3086 11.4883 11.2891 11.4922 11.2695C11.4922 11.2578 11.5039 11.2383 11.5117 11.25C11.5234 11.2695 11.5391 11.2813 11.5547 11.2969C11.5664 11.3047 11.5547 11.3164 11.543 11.3203C11.5312 11.3203 11.5273 11.3359 11.5273 11.3477L11.5234 11.3867C11.5234 11.4063 11.5234 11.4258 11.5156 11.4453V11.5L11.5078 11.5352C11.5078 11.5469 11.5078 11.5625 11.4961 11.5664C11.4883 11.5742 11.4727 11.5742 11.4648 11.5664ZM12.3555 11.2695L12.3164 11.3086C12.2969 11.3203 12.3281 11.3281 12.332 11.3398C12.3398 11.3594 12.3398 11.375 12.3398 11.3945C12.3437 11.4102 12.3477 11.4258 12.3438 11.4453C12.3438 11.4648 12.3203 11.4609 12.3086 11.4727C12.293 11.4766 12.2891 11.4922 12.2773 11.5039C12.2734 11.5156 12.2695 11.5352 12.2656 11.5508C12.2656 11.5664 12.2578 11.5781 12.2656 11.5938L12.2695 11.5977H12.2852L12.3281 11.5938C12.3672 11.5898 12.4063 11.5898 12.4414 11.5859L12.5078 11.5781C12.5234 11.582 12.5352 11.5664 12.5352 11.5508C12.5234 11.5273 12.5313 11.5078 12.5234 11.4883C12.5156 11.4648 12.5195 11.4453 12.5156 11.4258C12.5156 11.4063 12.4961 11.3984 12.4844 11.4102C12.4727 11.4258 12.457 11.4258 12.4492 11.4375C12.4414 11.457 12.4688 11.457 12.4727 11.4688L12.4766 11.5156C12.4805 11.5313 12.4609 11.5313 12.4453 11.5352C12.4336 11.5391 12.4102 11.543 12.4023 11.5273C12.3945 11.5117 12.3945 11.4961 12.3945 11.4805C12.3945 11.4492 12.3867 11.4258 12.3867 11.3984C12.3867 11.3711 12.3789 11.3359 12.3789 11.3047C12.3789 11.2891 12.375 11.2695 12.3555 11.2695ZM12.3359 11.5156H12.3438V11.5391L12.3359 11.543C12.332 11.5469 12.3281 11.5469 12.3242 11.5469C12.3203 11.5469 12.3203 11.5469 12.3164 11.5469C12.3125 11.5391 12.3125 11.5313 12.3203 11.5234L12.3359 11.5156ZM11.4375 11.2422C11.4258 11.2422 11.4102 11.2617 11.3984 11.2578C11.3711 11.2617 11.375 11.2891 11.3984 11.2969V11.3203C11.3984 11.3477 11.3867 11.3672 11.3867 11.3906C11.3867 11.4141 11.3789 11.4414 11.3789 11.4688C11.3711 11.4961 11.3711 11.5234 11.3672 11.5508C11.3633 11.5742 11.3477 11.5664 11.332 11.5586V11.5273C11.3359 11.5039 11.3164 11.4961 11.2969 11.4922C11.2734 11.4922 11.2656 11.4766 11.2695 11.4609C11.2813 11.4492 11.3008 11.4492 11.3164 11.4492C11.3477 11.457 11.3438 11.418 11.3281 11.4023C11.3164 11.3867 11.293 11.3711 11.2852 11.3555C11.2852 11.332 11.2695 11.3047 11.25 11.293C11.2188 11.2891 11.1914 11.3164 11.1797 11.3477C11.1641 11.3477 11.1523 11.3516 11.1406 11.3594C11.1172 11.3633 11.0898 11.3984 11.1172 11.4141C11.1328 11.418 11.1836 11.4297 11.1602 11.4492C11.1484 11.4766 11.125 11.4766 11.1016 11.4688C11.082 11.4688 11.0586 11.457 11.0586 11.4336C11.0547 11.4102 11.0547 11.3867 11.0469 11.3633C11.0391 11.3398 11.0117 11.3477 11.0117 11.3711C10.9883 11.3867 10.9922 11.4102 11.0078 11.4297C11.0156 11.4492 11.0078 11.4766 10.9961 11.4961C10.9922 11.5273 10.9609 11.5273 10.9414 11.5313C10.9336 11.5391 10.8945 11.5313 10.9062 11.5547C10.9297 11.5625 10.957 11.5664 10.9805 11.5625C11.0039 11.5625 11.0234 11.5391 11.0391 11.5195C11.0547 11.5039 11.082 11.5156 11.1055 11.5156C11.1289 11.5156 11.1523 11.5273 11.1758 11.5156C11.1797 11.5039 11.2109 11.4727 11.2188 11.5039C11.2188 11.5273 11.2422 11.5391 11.2656 11.5391C11.293 11.5391 11.2812 11.5547 11.2812 11.5742C11.2812 11.6016 11.3008 11.6172 11.3242 11.6289H11.3477C11.3711 11.6172 11.3945 11.6094 11.4023 11.5859C11.4102 11.5664 11.4102 11.5391 11.418 11.5195C11.4258 11.4883 11.4297 11.4492 11.4297 11.418C11.4375 11.3867 11.4375 11.3555 11.4414 11.3203L11.4492 11.2539C11.4492 11.2383 11.4453 11.2383 11.4375 11.2422ZM11.2344 11.3633C11.2383 11.3633 11.2422 11.3711 11.2422 11.3789C11.2422 11.3906 11.2461 11.3984 11.2578 11.4023V11.4102L11.2305 11.418C11.2187 11.418 11.2031 11.4102 11.1953 11.4023L11.1914 11.3984L11.2148 11.375C11.2227 11.3672 11.2305 11.3633 11.2344 11.3633ZM13.2148 11.1289C13.1992 11.1289 13.1797 11.1328 13.1641 11.1367C13.1328 11.1367 13.1172 11.1641 13.1484 11.1836C13.168 11.2305 13.1953 11.1719 13.2227 11.1797C13.2656 11.1836 13.2695 11.2305 13.2773 11.2695C13.2773 11.3008 13.2891 11.3359 13.3008 11.3672C13.3281 11.3984 13.2773 11.4219 13.2578 11.3984C13.2383 11.375 13.1953 11.3516 13.1758 11.3789C13.1484 11.3906 13.1445 11.4258 13.125 11.4375C13.0898 11.4492 13.0859 11.4023 13.0664 11.3867C13.0469 11.3594 13.0156 11.3555 12.9883 11.3477C12.9766 11.3203 12.9805 11.2773 12.957 11.2578C12.9336 11.2695 12.8906 11.3086 12.9258 11.332C12.957 11.3594 12.9102 11.3711 12.8984 11.3906C12.8711 11.418 12.8672 11.4492 12.8672 11.4805C12.8281 11.5039 12.8203 11.457 12.8164 11.4297C12.8164 11.3984 12.7852 11.4063 12.7656 11.418C12.7344 11.4297 12.7227 11.457 12.7031 11.4766V11.5391C12.7109 11.5664 12.7422 11.5547 12.7578 11.5508C12.7891 11.5391 12.8008 11.5703 12.7773 11.5898C12.7578 11.6055 12.7109 11.5977 12.7188 11.6328H12.7656C12.7969 11.6211 12.832 11.5977 12.8359 11.5625C12.8398 11.5313 12.8867 11.5352 12.9102 11.5273C12.9375 11.5195 12.9766 11.5156 12.9883 11.5586C13.0078 11.5781 13.0547 11.6055 13.0781 11.5742C13.0898 11.5664 13.0977 11.5547 13.1016 11.543C13.1094 11.5313 13.1133 11.5195 13.1094 11.5039C13.1055 11.4805 13.1484 11.4805 13.1602 11.4961C13.1758 11.5195 13.2227 11.5156 13.2461 11.4961C13.2734 11.4805 13.2773 11.4492 13.3125 11.4492L13.4766 11.4023C13.5195 11.3945 13.4688 11.3672 13.457 11.3477C13.4297 11.3359 13.3984 11.3984 13.3633 11.3672C13.332 11.3477 13.3359 11.3086 13.3242 11.2734C13.3164 11.2305 13.3203 11.1836 13.2891 11.1523C13.2734 11.1328 13.2422 11.1289 13.2148 11.1289ZM13.0117 11.4102C13.0156 11.4102 13.0195 11.4102 13.0273 11.418C13.0391 11.4258 13.0469 11.4375 13.0469 11.4492C13.0469 11.4531 13.0469 11.4531 13.0391 11.457L13.0234 11.4648C13.0156 11.4648 13.0039 11.4531 13.0039 11.4492V11.4375C12.9961 11.4258 12.9961 11.4258 13.0039 11.418L13.0117 11.4102ZM13.207 11.4258C13.2188 11.4258 13.2227 11.4258 13.2305 11.4336C13.2344 11.4453 13.2305 11.4492 13.2188 11.457L13.2031 11.4648L13.1914 11.4531C13.1836 11.4492 13.1836 11.4492 13.1836 11.4414C13.1836 11.4336 13.1953 11.4258 13.207 11.4219V11.4258ZM12.9375 11.4258C12.9414 11.4258 12.9453 11.4258 12.9492 11.4297C12.9531 11.4375 12.957 11.4375 12.957 11.4492V11.4648C12.957 11.4766 12.957 11.4727 12.9375 11.4727C12.9219 11.4727 12.918 11.4727 12.918 11.4531C12.918 11.4414 12.918 11.4375 12.9258 11.4336C12.9297 11.4258 12.9375 11.4258 12.9375 11.4258ZM12.7734 11.4688C12.7773 11.4688 12.7812 11.4727 12.7812 11.4727C12.7852 11.4766 12.7852 11.4766 12.7852 11.4805C12.7852 11.4883 12.7852 11.4961 12.7812 11.5C12.7695 11.5039 12.7578 11.5039 12.75 11.5C12.75 11.4961 12.75 11.4961 12.75 11.4961C12.7422 11.4922 12.7422 11.4883 12.75 11.4883V11.4844L12.7578 11.4766C12.7578 11.4727 12.7617 11.4688 12.7656 11.4688C12.7656 11.4688 12.7695 11.4688 12.7734 11.4688ZM13.0508 11.5039L13.0664 11.5078V11.5273H13.0273V11.5195C13.0273 11.5156 13.0273 11.5117 13.0312 11.5078L13.0508 11.5039ZM12.5352 11.6484C12.5352 11.6484 12.5273 11.6445 12.5352 11.6445C12.5352 11.6328 12.5508 11.6328 12.5586 11.625C12.5742 11.6172 12.5898 11.6094 12.6016 11.5938C12.6016 11.582 12.6133 11.5781 12.6133 11.5664L12.6094 11.5234C12.6055 11.5117 12.5977 11.5 12.5859 11.4922C12.5742 11.4883 12.5625 11.4883 12.5625 11.4766C12.5625 11.4648 12.5703 11.457 12.5742 11.4492L12.5898 11.4102C12.6016 11.4023 12.6133 11.4102 12.6133 11.418L12.6289 11.4492C12.6406 11.457 12.6445 11.4648 12.6484 11.4766C12.6523 11.4883 12.6602 11.5 12.6602 11.5078L12.6641 11.5469C12.6641 11.5625 12.6641 11.5781 12.6602 11.5938L12.6406 11.6172C12.6328 11.6289 12.625 11.6367 12.6133 11.6406C12.6016 11.6445 12.5977 11.6523 12.5859 11.6523H12.5391L12.5352 11.6484ZM12.3281 11.6602C12.3242 11.6563 12.3203 11.6523 12.3203 11.6445C12.3203 11.6328 12.3203 11.6328 12.3281 11.625C12.3438 11.6133 12.3477 11.6133 12.3711 11.625C12.3945 11.6367 12.4023 11.6367 12.4023 11.6289C12.4062 11.6211 12.418 11.6133 12.4336 11.6133C12.4375 11.6133 12.4414 11.6172 12.4453 11.6172C12.4531 11.625 12.457 11.6289 12.457 11.6406C12.457 11.6563 12.457 11.6563 12.4453 11.6641C12.4375 11.6719 12.4375 11.6719 12.4258 11.6719C12.4219 11.668 12.4141 11.668 12.4102 11.6641C12.4063 11.6602 12.4023 11.6563 12.4023 11.6523C12.4023 11.6445 12.4023 11.6445 12.3945 11.6484L12.3906 11.6523C12.3828 11.6523 12.3711 11.6602 12.3672 11.668L12.3516 11.6719C12.3398 11.6719 12.3398 11.6719 12.3281 11.6602ZM11.7344 11.3945C11.7148 11.3945 11.6953 11.4102 11.6914 11.4336C11.6953 11.4531 11.7148 11.4766 11.7031 11.5C11.7109 11.5273 11.6797 11.5391 11.6562 11.5273C11.6445 11.4961 11.6406 11.4648 11.6172 11.4375C11.5938 11.4297 11.5859 11.4688 11.5664 11.4844C11.5781 11.5039 11.6016 11.5273 11.6055 11.5547C11.6094 11.582 11.5937 11.6133 11.5703 11.625C11.5508 11.6445 11.5195 11.6406 11.4961 11.6445C11.4648 11.6602 11.5156 11.668 11.5312 11.668C11.5625 11.6719 11.5937 11.668 11.6211 11.6445C11.6445 11.6328 11.6406 11.5938 11.668 11.5898L11.8125 11.5977C11.8359 11.6055 11.875 11.5938 11.8906 11.6133C11.8906 11.6445 11.9219 11.668 11.9492 11.6797C11.9648 11.6836 11.9805 11.6641 11.9922 11.6602C12.0234 11.6523 12.0156 11.6172 12.0312 11.6016H12.1836C12.1875 11.6016 12.1914 11.5859 12.1992 11.5781L12.1953 11.5234C12.1875 11.5 12.1953 11.4688 12.1797 11.4492C12.1523 11.4414 12.1328 11.4648 12.1094 11.4648C12.0781 11.4766 12.0586 11.5039 12.0547 11.5352C12.0391 11.5625 12.0117 11.5273 12.0234 11.5039L12.0195 11.4766C12.0078 11.4609 11.9805 11.4648 11.957 11.4648L11.8672 11.457C11.8398 11.457 11.8125 11.4609 11.7852 11.4531C11.7578 11.4531 11.7578 11.4258 11.7578 11.3984C11.75 11.3945 11.7422 11.3945 11.7344 11.3945ZM11.7969 11.5039L11.8242 11.5078H11.8633C11.8945 11.5156 11.9258 11.5156 11.9531 11.5156C11.9609 11.5156 11.9688 11.5195 11.9727 11.5273V11.5859C11.9727 11.5938 11.9727 11.6055 11.9688 11.6094C11.9648 11.6133 11.9648 11.6133 11.9609 11.6172C11.957 11.6133 11.9531 11.6133 11.9492 11.6094C11.9453 11.6094 11.9414 11.6055 11.9414 11.6016V11.5586C11.9336 11.5547 11.9258 11.5508 11.918 11.5508L11.8398 11.5469L11.7812 11.543C11.7734 11.5391 11.7617 11.543 11.7539 11.5313C11.7461 11.5273 11.7578 11.5156 11.7656 11.5117C11.7773 11.5078 11.7852 11.5039 11.7969 11.5039ZM12.1367 11.5156C12.1367 11.5156 12.1406 11.5156 12.1406 11.5234L12.1484 11.5391C12.1484 11.5391 12.1484 11.543 12.1406 11.543C12.125 11.5508 12.1094 11.5508 12.1055 11.543C12.1055 11.5391 12.1055 11.5273 12.1094 11.5273L12.1367 11.5156Z" fill="#C09300"/>
<path d="M12 9.81641C12.9765 9.06641 12.8945 7.96094 12.8945 7.96094L12.8203 7.96875C12.6132 7.96875 12.1211 7.84766 12.0078 7.69922C11.8906 7.83594 11.3867 7.97266 11.1796 7.97266L11.1054 7.96094C11.1054 7.96094 11.0195 9.0625 12 9.81641Z" fill="white"/>
<path fill-rule="evenodd" clip-rule="evenodd" d="M12.0084 7.67297L12.0208 7.68919C12.0467 7.72318 12.0959 7.75721 12.1606 7.78914C12.2248 7.82083 12.3025 7.84957 12.3835 7.87382C12.5453 7.92226 12.7179 7.95206 12.8193 7.95223L12.9096 7.94272L12.9108 7.95969L12.9111 7.96313L12.9116 7.97279C12.9119 7.98124 12.9123 7.99367 12.9125 8.00971C12.9128 8.04178 12.9122 8.08831 12.9084 8.14644C12.9008 8.26269 12.8804 8.42544 12.8292 8.61177C12.727 8.98448 12.5017 9.45179 12.0099 9.82947L11.9999 9.83719L11.9898 9.82946C11.4961 9.44984 11.2708 8.98254 11.169 8.61029C11.1181 8.4242 11.0981 8.26181 11.0908 8.14585C11.0871 8.08787 11.0866 8.04147 11.087 8.00949C11.0873 7.9935 11.0877 7.98112 11.0881 7.97269L11.0886 7.96306L11.0888 7.96055L11.0903 7.94183L11.1808 7.95613C11.2821 7.95585 11.4573 7.92228 11.6224 7.87141C11.7052 7.84594 11.7848 7.81631 11.8508 7.78472C11.9173 7.75288 11.9682 7.71991 11.9951 7.68846L12.0084 7.67297ZM11.1208 7.98007C11.1205 7.98772 11.1202 7.99773 11.12 8.00995C11.1196 8.04116 11.1201 8.08671 11.1237 8.14377C11.1309 8.25792 11.1506 8.41804 11.2008 8.60158C11.3005 8.96605 11.5201 9.42267 11.9999 9.79553C12.4777 9.42459 12.6973 8.968 12.7974 8.60303C12.8479 8.41924 12.868 8.25875 12.8755 8.14428C12.8792 8.08706 12.8798 8.04137 12.8795 8.01005C12.8794 7.9973 12.8791 7.98694 12.8788 7.97915L12.8202 7.98532C12.7144 7.98532 12.5379 7.95451 12.374 7.90543C12.2919 7.88085 12.2124 7.85149 12.146 7.81873C12.0882 7.79021 12.0389 7.75843 12.007 7.72392C11.9741 7.75578 11.9239 7.78633 11.8651 7.81448C11.7972 7.84698 11.7159 7.87716 11.6322 7.90295C11.465 7.95441 11.2855 7.98913 11.1795 7.98913H11.1769L11.1208 7.98007Z" fill="#C09300"/>
<path d="M12.8164 8.03906H12.793C12.6055 8.03906 12.1758 7.94531 12.0078 7.80469C11.832 7.93359 11.3906 8.04297 11.207 8.04297C11.1992 8.04297 11.1914 8.04297 11.1836 8.03906C11.1875 8.23047 11.2109 8.41797 11.2617 8.60156C11.3828 9.04297 11.6406 9.43359 12 9.71484C12.3594 9.42969 12.6172 9.03906 12.7383 8.59766C12.7891 8.41797 12.8125 8.23047 12.8164 8.03906Z" fill="white"/>
<path fill-rule="evenodd" clip-rule="evenodd" d="M12.0084 7.7876L12.0165 7.79439C12.0981 7.8627 12.2451 7.9207 12.3966 7.96163C12.5478 8.00247 12.7009 8.02562 12.793 8.02562H12.8302L12.8299 8.03939C12.826 8.23169 12.8025 8.42035 12.7513 8.60133C12.6295 9.04548 12.37 9.43854 12.0084 9.72547L12.0001 9.73209L11.9917 9.72553C11.63 9.44247 11.3706 9.04935 11.2487 8.60519C11.1976 8.42034 11.1741 8.23172 11.1701 8.03939L11.1697 8.01705L11.1897 8.02704C11.1942 8.02933 11.1989 8.02952 11.2071 8.02952C11.2971 8.02952 11.4519 8.00256 11.6068 7.95922C11.7617 7.91584 11.914 7.85679 11.9999 7.79386L12.0084 7.7876ZM11.614 7.98522C11.4583 8.02881 11.3007 8.05652 11.2071 8.05652C11.2068 8.05652 11.2073 8.05652 11.2071 8.05652C11.2045 8.05653 11.2008 8.05653 11.1975 8.05631C11.2025 8.24072 11.2259 8.42126 11.2748 8.59802C11.3942 9.03323 11.6473 9.41874 12 9.69768C12.3528 9.4149 12.6059 9.02936 12.7253 8.59414C12.7745 8.42007 12.7979 8.23832 12.8026 8.05262H12.793C12.6977 8.05262 12.5421 8.02889 12.3896 7.9877C12.2421 7.94786 12.0949 7.89103 12.0073 7.82172C11.9162 7.88529 11.7648 7.94303 11.614 7.98522Z" fill="#C09300"/>
<path d="M11.6836 7.94922C11.5195 8.00391 11.3516 8.03125 11.1836 8.03906L11.1875 8.16406C11.1953 8.30859 11.2227 8.45703 11.2617 8.59766C11.3437 8.89453 11.4844 9.16797 11.6836 9.40234V7.94922ZM12.3008 7.94922V9.42578C12.5039 9.1875 12.6563 8.90234 12.7383 8.59766C12.7773 8.45703 12.8008 8.30859 12.8125 8.16406L12.8164 8.04297H12.793C12.6797 8.04297 12.4805 8.00781 12.3008 7.94531V7.94922Z" fill="#C09300"/>
<path d="M12.384 7.58691C12.4051 7.58691 12.3569 7.47837 12.3569 7.47837C12.4111 7.53264 12.6101 7.5447 12.6101 7.5447C12.4895 7.49043 12.3689 7.08943 12.384 6.76984C12.3961 6.44723 12.3388 6.3206 12.2905 6.27538C12.2302 6.21508 12.0373 6.16081 11.9076 6.15478C11.8353 6.15176 11.8473 6.20905 11.8473 6.20905C11.7147 6.17588 11.579 6.16081 11.5187 6.20302C11.4614 6.24221 11.4494 6.42914 11.4916 6.39598C11.5911 6.31457 11.6785 6.38995 11.7388 6.47738C11.7931 6.55276 11.787 6.77286 11.7117 7.02612C11.6303 7.29445 11.4102 7.55978 11.4102 7.55978C11.5308 7.55978 11.6966 7.45425 11.6966 7.45425L11.6574 7.62008C11.784 7.55978 11.8835 7.46631 11.8835 7.46631L12.0041 7.59294C12.0433 7.53867 12.1247 7.46631 12.1247 7.46631C12.1247 7.46631 12.2302 7.57184 12.384 7.58691Z" fill="white"/>
<path d="M11.6362 7.6534L11.6754 7.49059C11.6182 7.52375 11.5066 7.57802 11.4161 7.57802H11.377L11.4011 7.54787C11.4041 7.54486 11.6182 7.27954 11.6965 7.02024C11.7749 6.75794 11.7719 6.55292 11.7267 6.48659C11.6845 6.42327 11.6362 6.38709 11.594 6.38106C11.5639 6.37805 11.5337 6.38709 11.5036 6.41121C11.4915 6.42327 11.4795 6.42026 11.4734 6.41724C11.4614 6.41121 11.4523 6.39614 11.4493 6.37202C11.4433 6.32378 11.4614 6.22127 11.5096 6.1881C11.582 6.13986 11.7327 6.16398 11.8292 6.1881C11.8322 6.17905 11.8352 6.17001 11.8413 6.16096C11.8563 6.14589 11.8774 6.13684 11.9076 6.13986C12.0403 6.14589 12.2392 6.20318 12.3026 6.26649C12.3538 6.31775 12.4141 6.45041 12.4021 6.77603C12.387 7.10467 12.5136 7.48757 12.6191 7.5328L12.6101 7.56898C12.592 7.56898 12.4714 7.55993 12.393 7.52677C12.4141 7.58405 12.4051 7.5931 12.4021 7.59913C12.399 7.60516 12.39 7.60817 12.381 7.60817C12.2543 7.59611 12.1609 7.52375 12.1277 7.4936C12.1036 7.51471 12.0523 7.56596 12.0222 7.60516L12.0101 7.62325L11.8865 7.4936C11.8533 7.52074 11.7689 7.59008 11.6694 7.63832L11.6362 7.6534ZM11.7297 7.4122L11.6875 7.58405C11.793 7.52677 11.8744 7.45139 11.8744 7.45139L11.8865 7.43933L12.0041 7.56295C12.0463 7.51169 12.1096 7.45441 12.1126 7.45139L12.1247 7.43933L12.1367 7.45139C12.1367 7.45139 12.2272 7.54486 12.3629 7.56295C12.3568 7.54486 12.3448 7.51169 12.3327 7.48154L12.3629 7.46044C12.393 7.49059 12.4774 7.50868 12.5438 7.51471C12.4352 7.39109 12.3448 7.04738 12.3568 6.76397C12.3689 6.43533 12.3086 6.32076 12.2694 6.28157C12.2121 6.22428 12.0252 6.17302 11.8986 6.16699C11.8865 6.16699 11.8714 6.16699 11.8624 6.17604C11.8533 6.18509 11.8563 6.20016 11.8563 6.20016L11.8624 6.2273L11.8352 6.22127C11.6875 6.18207 11.5699 6.17905 11.5217 6.21222C11.5066 6.22428 11.4915 6.25443 11.4825 6.29664C11.4764 6.32981 11.4764 6.35694 11.4795 6.37202C11.5156 6.34488 11.5518 6.33584 11.591 6.33885C11.6453 6.3479 11.6965 6.38709 11.7478 6.45945C11.8081 6.54689 11.796 6.77904 11.7237 7.02326C11.6604 7.23733 11.5096 7.44838 11.4463 7.52978C11.5548 7.51169 11.6815 7.43029 11.6815 7.43029L11.7297 7.4122Z" fill="#C09300"/>
<path d="M12.3417 7.49052C12.2271 7.32168 12.2 6.87245 12.197 6.85436L12.2361 6.85134C12.2361 6.85737 12.2633 7.30962 12.3748 7.46942L12.3417 7.49052ZM11.9045 7.47545L11.8713 7.45736C11.9558 7.30359 11.9829 6.80913 11.9829 6.8031L12.0221 6.80612C12.0191 6.82722 11.9949 7.31264 11.9045 7.47545ZM12.1125 7.47243C12.0794 7.37595 12.0794 6.84531 12.0794 6.82421H12.1186C12.1186 6.97496 12.1246 7.385 12.1517 7.46037L12.1125 7.47243ZM11.7176 7.4664L11.6904 7.44228C11.811 7.30661 11.8804 6.82119 11.8804 6.81516L11.9196 6.82119C11.9135 6.83928 11.8442 7.32168 11.7176 7.4664Z" fill="#C09300"/>
<path d="M11.7749 6.57712C11.7688 6.53491 11.7598 6.49873 11.7417 6.47763C11.6814 6.39019 11.594 6.31783 11.4945 6.39622C11.4945 6.39622 11.5276 6.2907 11.603 6.28768C11.6603 6.28467 11.79 6.32989 11.9015 6.52285C11.9015 6.52285 11.8171 6.50476 11.796 6.52285C11.7598 6.55602 11.7749 6.57712 11.7749 6.57712ZM11.4824 6.26658C11.4915 6.23944 11.5035 6.21532 11.5216 6.20326C11.5819 6.16407 11.7146 6.17613 11.8503 6.20929C11.8503 6.20929 11.8382 6.15201 11.9106 6.15502C12.0372 6.16105 12.2332 6.21532 12.2935 6.27562C12.3085 6.2907 12.3236 6.31482 12.3387 6.34798H12.3357C12.3055 6.30577 12.2211 6.30879 12.203 6.3118C12.1698 6.31482 12.1518 6.31482 12.1095 6.32386C12.0884 6.32989 12.0583 6.33592 12.0432 6.34798C12.0312 6.36004 12.0191 6.39622 11.998 6.39622C11.9648 6.39622 11.9678 6.38718 11.9588 6.37813C11.9467 6.36607 11.9437 6.34497 11.9317 6.34798C11.8985 6.35401 11.8442 6.32688 11.7779 6.27562C11.7116 6.22437 11.6844 6.20929 11.597 6.21532C11.5096 6.22135 11.4824 6.26959 11.4824 6.26959V6.26658Z" fill="#C09300"/>
<path d="M11.7689 6.57988C11.7689 6.57988 11.7629 6.57083 11.7659 6.55877C11.7599 6.52259 11.7508 6.49847 11.7388 6.47737C11.6936 6.41104 11.6453 6.37184 11.5971 6.36581C11.5639 6.35978 11.5307 6.37184 11.4976 6.39898L11.4825 6.41104L11.4885 6.39295C11.4885 6.38993 11.5247 6.28441 11.6001 6.27838C11.6574 6.27536 11.79 6.32059 11.9046 6.51656L11.9106 6.52862L11.8986 6.52561C11.8684 6.51958 11.8111 6.51053 11.7991 6.52259C11.784 6.53767 11.778 6.54671 11.775 6.55576C11.775 6.56179 11.778 6.56782 11.778 6.57385L11.7689 6.57988ZM11.582 6.35677C11.588 6.35677 11.5941 6.35677 11.6001 6.35677C11.6513 6.3628 11.6996 6.40199 11.7478 6.47134C11.7599 6.48641 11.7689 6.51053 11.775 6.53767C11.778 6.53164 11.787 6.52259 11.7961 6.51355C11.8142 6.49847 11.8684 6.50752 11.8925 6.51053C11.7539 6.28139 11.6122 6.28742 11.6031 6.28742C11.5519 6.29044 11.5187 6.34772 11.5066 6.37787C11.5307 6.36581 11.5549 6.35677 11.582 6.35677ZM11.9951 6.40199C11.9679 6.40199 11.9619 6.39596 11.9559 6.38692C11.9559 6.3839 11.9529 6.3839 11.9529 6.38089C11.9498 6.37486 11.9468 6.37184 11.9438 6.36581C11.9408 6.35978 11.9348 6.35074 11.9317 6.35074C11.8986 6.35677 11.8443 6.33265 11.775 6.27536C11.7086 6.22109 11.6845 6.20903 11.5971 6.21506C11.5157 6.22109 11.4885 6.26632 11.4885 6.26933L11.4795 6.2633L11.4825 6.25727C11.4885 6.23918 11.5006 6.20602 11.5217 6.19094C11.5941 6.1427 11.7539 6.17285 11.8473 6.19697C11.8473 6.18793 11.8473 6.17285 11.8594 6.16079C11.8714 6.14873 11.8895 6.1427 11.9137 6.1427C12.0463 6.14873 12.2393 6.203 12.2996 6.26632C12.3177 6.28742 12.3327 6.31154 12.3448 6.33868L12.3478 6.34471H12.3358L12.3327 6.34169C12.3056 6.30551 12.2302 6.30551 12.2031 6.30853C12.1941 6.30853 12.185 6.31154 12.179 6.31154C12.1579 6.31456 12.1398 6.31456 12.1096 6.3236L12.1036 6.32662C12.0855 6.32963 12.0584 6.33566 12.0463 6.34772C12.0433 6.35074 12.0373 6.35978 12.0343 6.36581C12.0192 6.38692 12.0101 6.40199 11.9951 6.40199ZM11.9287 6.34471C11.9378 6.34471 11.9438 6.35375 11.9498 6.3628C11.9529 6.36883 11.9559 6.37184 11.9589 6.37486C11.9619 6.37787 11.9619 6.37787 11.9619 6.38089C11.9649 6.38692 11.9679 6.38993 11.992 6.38993C12.0011 6.38993 12.0101 6.37486 12.0162 6.3628C12.0222 6.35375 12.0252 6.34471 12.0312 6.34169C12.0463 6.32963 12.0735 6.3236 12.0946 6.31757L12.1006 6.31456C12.1307 6.30551 12.1518 6.30551 12.1729 6.3025C12.182 6.3025 12.188 6.3025 12.1971 6.29948C12.1971 6.29948 12.2755 6.29044 12.3177 6.32059C12.3086 6.3025 12.2966 6.28742 12.2845 6.27235C12.2272 6.21506 12.0343 6.16079 11.9076 6.15476C11.8865 6.15476 11.8714 6.15778 11.8624 6.16984C11.8503 6.18491 11.8534 6.203 11.8534 6.203L11.8564 6.21205L11.8473 6.20903C11.6936 6.16984 11.576 6.16682 11.5247 6.19999C11.5157 6.20602 11.5036 6.22109 11.4976 6.23918C11.5157 6.22411 11.5458 6.20602 11.5971 6.203C11.6845 6.19697 11.7116 6.20903 11.781 6.2633C11.8473 6.3236 11.8986 6.35074 11.9287 6.34471Z" fill="#C09300"/>
<path d="M11.9767 6.34472C11.9967 6.34472 12.0128 6.32857 12.0128 6.30865C12.0128 6.28873 11.9967 6.27258 11.9767 6.27258C11.9568 6.27258 11.9407 6.28873 11.9407 6.30865C11.9407 6.32857 11.9568 6.34472 11.9767 6.34472Z" fill="white"/>
<path fill-rule="evenodd" clip-rule="evenodd" d="M22 0.7H2C1.28203 0.7 0.7 1.28203 0.7 2V16C0.7 16.718 1.28203 17.3 2 17.3H22C22.718 17.3 23.3 16.718 23.3 16V2C23.3 1.28203 22.718 0.7 22 0.7ZM2 0C0.895431 0 0 0.89543 0 2V16C0 17.1046 0.89543 18 2 18H22C23.1046 18 24 17.1046 24 16V2C24 0.895431 23.1046 0 22 0H2Z" fill="#DFDFDF"/>
</svg>
